<?xml version="1.0" encoding="iso-8859-1"?>
<!-- Generator: Adobe Illustrator 19.1.0, SVG Export Plug-In . SVG Version: 6.00 Build 0)  -->
<svg version="1.1" id="Layer_1" xmlns="http://www.w3.org/2000/svg" xmlns:xlink="http://www.w3.org/1999/xlink" x="0px" y="0px"
	 viewBox="0 0 295 113.726" style="enable-background:new 0 0 295 113.726;" xml:space="preserve">
<g>
	<path style="fill:#FFFFFF;" d="M12.92,6.13H8.664C3.898,6.13,0,10.028,0,14.793v60.632L11.803,9.381
		C12.011,8.219,12.399,7.131,12.92,6.13z"/>
	<path style="fill:#FFFFFF;" d="M27.501,5.55c0.319-0.871,0.736-1.689,1.236-2.443l-4.121-0.737
		c-4.957-0.886-9.737,2.445-10.623,7.402L2.595,73.549L27.501,5.55z"/>
	<polygon style="fill:#FFFFFF;" points="134.578,65.653 128.225,45.006 122.517,45.006 116.114,65.653 109.662,43.864 
		101.721,43.864 112.69,78.608 118.844,78.608 125.346,57.314 131.848,78.608 138.003,78.608 148.972,43.864 141.03,43.864 	"/>
	<rect x="151.555" y="43.864" style="fill:#FFFFFF;" width="7.743" height="34.743"/>
	<polygon style="fill:#FFFFFF;" points="191.264,48.827 191.264,43.864 164.907,43.864 164.907,50.465 181.336,50.465 
		163.419,73.743 163.419,78.608 191.71,78.608 191.71,72.006 173.147,72.006 	"/>
	<path style="fill:#FFFFFF;" d="M207.295,43.864l-13.549,34.743h8.04l3.028-8.041h12.31l3.077,8.041h8.19l-13.748-34.743H207.295z
		 M206.302,64.412l4.715-12.011l4.567,12.011H206.302z"/>
	<path style="fill:#FFFFFF;" d="M250.826,64.511c4.764-1.091,7.494-5.013,7.494-9.579c0-6.602-4.567-11.068-11.416-11.068h-15.535
		v34.743h7.793V64.959h3.474l8.09,13.649h7.892v-0.745L250.28,64.66L250.826,64.511z M246.259,59.449h-7.097v-8.984h7.097
		c2.581,0,4.269,1.787,4.269,4.517C250.528,57.662,248.841,59.449,246.259,59.449z"/>
	<path style="fill:#FFFFFF;" d="M277.232,43.864h-13.947v34.743h13.947c10.671,0,17.768-6.948,17.768-17.372
		S287.903,43.864,277.232,43.864z M276.338,72.006h-5.311V50.465h5.311c6.552,0,10.92,4.269,10.92,10.771
		C287.258,67.688,282.89,72.006,276.338,72.006z"/>
	<path style="fill:#FFFFFF;" d="M94.707,19.91L41.944,0.585C36.971-1.237,31.411,1.342,29.59,6.315L2.065,81.461
		c-1.822,4.973,0.757,10.533,5.731,12.355l52.762,19.326c4.974,1.822,10.533-0.757,12.355-5.731l27.524-75.145
		C102.259,27.292,99.68,21.732,94.707,19.91z M51.497,74.775c-3.746,3.102-8.62,4.88-13.373,4.88
		c-11.253,0-19.113-7.574-19.113-18.419s7.86-18.419,19.113-18.419c4.786,0,9.662,1.798,13.377,4.932l0.371,0.313l-4.746,6.005
		l-0.396-0.346c-2.228-1.944-5.469-3.152-8.456-3.152c-6.261,0-10.467,4.287-10.467,10.666s4.206,10.666,10.467,10.666
		c2.968,0,6.21-1.19,8.461-3.107l0.396-0.337l4.745,6.004L51.497,74.775z M72.081,79.109h-7.754L51.561,43.363h9.368l7.324,23.248
		l7.277-23.248h9.369L72.081,79.109z"/>
</g>
</svg>